<?xml version="1.0" encoding="UTF-8" standalone="no"?>
<!-- Created with Inkscape (http://www.inkscape.org/) -->

<svg
   version="1.1"
   id="svg1"
   width="447.66925"
   height="809.4776"
   viewBox="0 0 447.66925 809.4776"
   xmlns="http://www.w3.org/2000/svg"
   xmlns:svg="http://www.w3.org/2000/svg">
  <defs
     id="defs1" />
  <g
     id="g1"
     transform="translate(-274.47045,-101.46067)">
    <path
       style="fill:#000000"
       d="m 491.40016,910.28985 c -9.58132,-1.95607 -23.52791,-10.09212 -34.52731,-20.14227 l -5.91899,-5.40817 24.32886,-1.88064 c 23.52977,-1.81886 25.05441,-1.82236 46.41898,-0.10656 12.14957,0.97574 22.31513,2.00443 22.59013,2.28598 0.82229,0.84186 -10.97459,11.12392 -18.69633,16.29556 -11.88565,7.96041 -23.79456,11.07947 -34.19534,8.9561 z m -31.65038,-31.8337 -10.04204,-0.71994 -19.74072,-14.29734 c -17.37117,-12.58116 -20.03687,-14.88176 -22.20796,-19.16618 -1.35697,-2.67787 -2.46723,-5.0553 -2.46723,-5.28318 0,-0.22788 4.3875,-0.72636 9.75,-1.10773 21.56588,-1.53375 53.80146,-6.46801 82.75,-12.66644 25.2088,-5.39768 24.03984,-5.57909 -12.57753,-1.95187 -16.18236,1.60298 -40.75061,3.94213 -54.59611,5.1981 l -25.17363,2.28359 -4.74946,-2.45391 c -6.05906,-3.13053 -8.85782,-6.90328 -8.85782,-11.94042 0,-3.76887 3.33276,-9.01348 5.72773,-9.01348 0.50851,0 2.34257,-0.61951 4.07569,-1.37668 1.73312,-0.75718 11.02613,-2.3399 20.65113,-3.51717 28.36678,-3.46964 88.22797,-14.07598 90.24546,-15.98989 0.7841,-0.74383 -11.49237,0.26492 -52.74546,4.33406 -42.36958,4.17927 -55.55038,5.08425 -56.31464,3.86649 -0.37695,-0.60061 -2.33786,-1.78002 -4.35758,-2.62089 -4.37336,-1.82078 -6.82045,-5.22235 -7.52252,-10.45668 -0.42004,-3.13168 -0.0309,-4.41185 2.11708,-6.96458 1.44745,-1.72019 4.02418,-3.43346 5.72606,-3.80725 1.70467,-0.37441 3.29938,-1.46373 3.55091,-2.42557 0.38799,-1.48368 2.19486,-1.84522 12.02903,-2.40689 6.36485,-0.36352 17.46728,-1.56309 24.67206,-2.6657 19.70524,-3.01568 70.95839,-13.08481 72.0996,-14.1646 0.63666,-0.60239 0.0916,-0.73835 -1.5,-0.37418 -1.375,0.31459 -14.2,1.7059 -28.5,3.09178 -14.3,1.38589 -30.5,2.95681 -36,3.49095 -44.48377,4.3201 -41.43075,4.19874 -46.30213,1.84054 -8.20926,-3.97403 -10.23288,-15.1638 -3.53586,-19.55185 2.4399,-1.59868 2.76703,-1.57085 6.82223,0.58043 l 4.25945,2.25963 14.74619,-3.52234 c 8.11041,-1.93729 15.03058,-3.81984 15.37816,-4.18343 0.34758,-0.36359 -2.06804,-0.39836 -5.36804,-0.0773 -3.3,0.3211 -11.9041,0.86865 -19.12023,1.21677 -12.93624,0.62409 -13.14308,0.60033 -14.75,-1.69387 -2.4994,-3.5684 -2.10596,-9.49652 0.82478,-12.42726 l 2.45454,-2.45452 h 97.09091 97.09091 l 2.45454,2.45455 c 1.74999,1.74998 2.45455,3.55189 2.45455,6.27749 0,4.72781 -2.22564,8.04647 -6.63069,9.88701 -3.09834,1.29457 -3.36931,1.7599 -3.36931,5.78596 0,5.09689 0.42637,4.89376 -14,6.66992 -5.481,0.67482 -14.50686,0.92543 -21.33507,0.59239 -10.14272,-0.49471 -11.66688,-0.3746 -10.65889,0.83995 1.5054,1.8139 11.28921,5.49273 14.60785,5.49273 1.39638,0 9.30995,-1.62594 17.58571,-3.6132 12.39655,-2.97679 15.13717,-3.95861 15.55967,-5.57426 0.40314,-1.54161 1.07194,-1.82858 3.12678,-1.34167 3.69113,0.87463 7.38496,3.74175 8.95928,6.95412 2.96263,6.04518 -1.6695,14.3762 -9.34533,16.80784 -3.8337,1.21449 -4.01246,1.45951 -4.29975,5.89363 l -0.29974,4.62646 -5.88565,0.66589 c -10.63275,1.20296 -35.45306,3.53843 -38.51486,3.62406 -2.73878,0.0766 -2.80986,0.16051 -0.81632,0.96376 1.20103,0.48392 5.80059,1.37508 10.22124,1.98035 7.84236,1.07377 8.42013,1.0023 23.79188,-2.94324 8.66488,-2.22406 16.59782,-4.04374 17.62876,-4.04374 3.14542,0 8.67444,6.34183 8.67444,9.94966 0,6.3516 -3.75533,10.91157 -10.37869,12.6025 -4.01906,1.02606 -4.12325,1.16039 -4.19951,5.41438 -0.0623,3.476 -0.50428,4.51983 -2.17549,5.13805 -1.79556,0.66422 -12.61652,2.12085 -40.74631,5.48493 l -6,0.71754 4,0.91758 c 2.2,0.50466 9.175,0.99807 15.5,1.09646 11.16336,0.17366 11.81451,0.0618 22.24418,-3.8211 6.08625,-2.26588 10.7467,-4.56398 10.75,-5.30089 0.004,-0.80513 1.36211,-0.2664 3.56477,1.41365 9.94319,7.58404 8.41031,20.90687 -2.83504,24.6403 -3.73027,1.23843 -4.43352,1.97759 -6.01742,6.32463 -1.7036,4.67557 -2.70613,5.57923 -20,18.0277 -10.01357,7.20797 -19.41813,13.88028 -20.89903,14.82736 -2.39964,1.53465 -6.80532,1.75917 -40.5,2.06398 -20.7941,0.18811 -42.32638,0.018 -47.84951,-0.37793 z M 432.04183,768.18258 c 13.8875,-1.78579 25.25,-3.56439 25.25,-3.95244 0,-0.38805 -0.7875,-0.54769 -1.75,-0.35476 -0.9625,0.19294 -12.91608,1.5846 -26.56351,3.09258 -15.71514,1.73645 -25.43189,3.24079 -26.5,4.10271 -1.49393,1.20554 -1.34396,1.30371 1.31351,0.85986 1.65,-0.27559 14.3625,-1.96217 28.25,-3.74795 z m -29.83965,-63.7374 C 388.54085,692.26904 386.69105,685.82535 381.78917,633.33735 376.70737,578.92281 363.82889,542.62777 330.98318,490.15229 293.19966,429.788 279.28587,394.41193 275.2058,348.33735 c -1.50924,-17.04333 -0.62791,-42.51477 2.02612,-58.55676 13.25938,-80.14484 73.80392,-151.50381 150.05991,-176.86356 61.70758,-20.521509 130.76131,-13.173112 184.48894,19.63251 53.55298,32.69898 93.666,88.85605 106.01813,148.42229 6.60777,31.86494 5.62649,70.72244 -2.63555,104.36552 -7.4702,30.41869 -20.00816,57.04564 -48.26468,102.5 -32.42171,52.15463 -47.64382,93.29972 -51.60968,139.5 -2.31596,26.97981 -5.94218,53.77802 -8.03329,59.36701 -2.52591,6.75112 -8.45136,14.88274 -14.10503,19.35666 l -4.1403,3.27633 h -90.65965 -90.65966 z m 60.08595,-115.35783 -0.004,-112.25 -6.2463,-3.24973 c -19.54457,-10.16836 -33.59529,-26.78915 -38.35594,-45.37178 -2.35414,-9.18911 -1.5916,-21.98977 1.6565,-27.80748 3.85737,-6.90897 6.82377,-8.57101 15.2975,-8.57101 13.82718,0 25.44418,8.36266 32.89158,23.67745 4.86182,9.99782 8.58006,22.41956 10.60042,35.41344 l 1.69258,10.88573 5.48553,0.83315 c 5.93881,0.902 27.49904,0.39408 30.05427,-0.70802 1.12618,-0.48574 2.03495,-3.77986 3.22136,-11.67695 3.06561,-20.40555 11.39236,-40.47135 20.37818,-49.10735 8.80161,-8.45895 21.85092,-11.89311 30.55755,-8.04175 6.92627,3.06382 10.05582,9.02755 10.57636,20.15452 1.11579,23.85101 -14.03502,47.01693 -39.40854,60.25654 l -6.10635,3.18622 -0.64365,11.97051 c -0.35371,6.58378 -0.64335,57.18129 -0.64335,112.43891 v 100.4684 l 8.43845,-0.4429 c 7.24564,-0.3803 9.52075,-0.97781 16.09517,-4.22707 9.14334,-4.51888 19.50491,-14.15304 22.49737,-20.91798 2.25897,-5.10677 5.33166,-25.26391 6.96071,-45.66285 2.39938,-30.04517 4.89944,-41.78934 15.54002,-73 11.87724,-34.83802 17.24197,-46.03111 40.96372,-85.46751 38.29391,-63.66201 49.4362,-95.95078 49.48624,-143.40415 0.0283,-26.85144 -4.0078,-48.53654 -13.55925,-72.85066 -31.21363,-79.45725 -106.20173,-129.45789 -188.92243,-125.96989 -51.59692,2.17563 -97.96285,23.4794 -133.59112,61.38115 -42.80633,45.53785 -62.63624,112.57729 -51.33854,173.56141 6.12861,33.08175 17.39461,58.55031 49.43236,111.74965 21.54553,35.7768 26.14399,45.48143 37.57542,79.29945 10.87365,32.16793 13.08703,42.11492 15.95468,71.70055 2.55125,26.32142 5.22332,44.62306 7.03612,48.19213 6.92107,13.62629 25.47962,25.67667 39.68108,25.7656 l 6.75,0.0423 z m -42.9383,-55 c -7.7842,-18.60081 -25.70138,-52.25522 -43.90969,-82.47695 -26.36106,-43.75347 -34.24144,-60.55523 -39.52582,-84.27305 -6.44158,-28.91159 -4.67779,-60.98993 4.94036,-89.8517 14.81539,-44.4574 47.49623,-79.47618 96.76059,-103.6827 15.74073,-7.73436 22.98155,-10.11706 11.75294,-3.86747 -32.20969,17.92717 -58.33745,44.76618 -73.89042,75.90187 -22.04242,44.12701 -26.38631,104.10335 -11.03636,152.37961 4.55609,14.32909 8.50618,23.41841 24.79556,57.05556 16.44092,33.95008 22.71178,48.83169 29.31349,69.56483 7.24537,22.7546 7.45213,25.14722 0.79935,9.25 z M 625.13851,429.33423 c 23.92012,-50.82275 27.36273,-108.58696 9.64096,-161.76737 -11.43707,-34.32096 -30.7166,-61.67738 -54.34708,-77.11504 -5.14769,-3.36296 -8.9597,-6.11447 -8.47112,-6.11447 2.16671,0 19.7963,12.43033 29.45055,20.76509 28.2253,24.36764 47.06672,56.52606 53.61593,91.51135 2.36922,12.65619 2.28821,39.50664 -0.1606,53.22356 -3.86265,21.63657 -13.70524,49.73241 -26.27414,75 -7.8994,15.88037 -10.25615,18.94826 -3.4545,4.49688 z M 515.30548,594.08735 c 0.008,-58.9875 0.25539,-108.15 0.55084,-109.25 0.52247,-1.94522 0.0496,-2 -17.26365,-2 h -17.80084 v 109.24968 109.24968 l 17.25,3.2e-4 17.25,3.2e-4 z m -56.46896,-150.0135 c -3.24751,-16.40006 -7.96241,-27.17084 -14.46605,-33.04649 -11.47395,-10.36603 -17.39157,2.39182 -9.13444,19.69306 4.02786,8.43963 12.31881,17.42665 19.22054,20.83421 2.93439,1.44878 5.48729,2.2115 5.67309,1.69494 0.18581,-0.51657 -0.3961,-4.64565 -1.29314,-9.17572 z m 94.16956,-1.15919 c 6.16383,-6.8196 11.56488,-18.28818 12.1006,-25.69433 0.36977,-5.11207 0.13585,-6.02318 -2.12742,-8.28646 -2.23915,-2.23915 -2.90496,-2.41665 -5.5743,-1.48611 -8.87545,3.094 -17.82742,21.23438 -20.6063,41.75684 l -0.72676,5.36725 6.17256,-3.28993 c 3.3949,-1.80947 8.23763,-5.57473 10.76162,-8.36726 z"
       id="path1" />
  </g>
</svg>
