<?xml version="1.0" encoding="UTF-8" standalone="no"?>
<!-- Created with Inkscape (http://www.inkscape.org/) -->

<svg
   width="141.00729mm"
   height="155.94322mm"
   viewBox="0 0 141.00729 155.94322"
   version="1.1"
   id="svg1"
   xmlns="http://www.w3.org/2000/svg"
   xmlns:svg="http://www.w3.org/2000/svg">
  <defs
     id="defs1" />
  <g
     id="layer1"
     transform="translate(-25.929165,-24.341667)">
    <path
       style="fill:#ffffff;stroke-width:0.264583"
       d="m 129.94245,179.53884 c -3.77109,-1.3126 -7.92214,-3.96671 -12.43854,-7.953 l -2.1024,-1.85563 H 74.676348 c -44.897905,0 -42.081992,0.10438 -44.679917,-1.65611 -0.69591,-0.47159 -1.713606,-1.51228 -2.261545,-2.31264 -1.99631,-2.916 -1.850114,2.84324 -1.763032,-69.453127 l 0.07808,-64.822916 0.636003,-1.579298 c 0.761733,-1.891506 2.723938,-3.962267 4.655664,-4.913206 l 1.322916,-0.651246 h 50.270833 50.27083 l 1.28453,0.656061 c 2.01589,1.029626 4.01389,3.37193 4.65963,5.462614 0.53081,1.718548 0.53814,2.273141 0.53814,40.753082 v 39.010806 l 0.65877,0.61052 c 0.93387,0.86548 3.39198,2.12461 5.55893,2.84745 1.64874,0.54996 2.33139,0.61664 6.21771,0.60722 3.79904,-0.009 4.76029,-0.10364 7.40654,-0.72761 3.70678,-0.87402 4.97764,-0.90932 5.92452,-0.16449 1.48151,1.16533 1.486,1.20235 1.48102,12.20047 -0.003,5.57339 -0.12194,11.26455 -0.26538,12.647 -1.51305,14.5827 -9.02785,27.53376 -21.20063,36.53734 -2.63,1.94527 -6.70151,4.1809 -9.14572,5.02182 -2.06997,0.71218 -3.77783,0.64122 -6.38179,-0.26511 z m 7.62936,-8.94141 c 3.78651,-2.20035 9.78029,-7.71908 12.92339,-11.89913 4.52904,-6.02319 7.35808,-12.69545 8.24932,-19.45595 0.15866,-1.20351 0.35917,-5.61123 0.44559,-9.79495 0.15186,-7.35275 0.14032,-7.60675 -0.3457,-7.60614 -0.27655,2.6e-4 -2.09628,0.12221 -4.04386,0.27077 -6.1641,0.47022 -11.01612,-0.43021 -15.33598,-2.84601 -1.7599,-0.9842 -4.29297,-2.87301 -5.12252,-3.81969 -0.44109,-0.50334 -0.50498,-0.47223 -2.73518,1.33189 -5.00534,4.04908 -10.81448,5.8556 -17.70044,5.5045 -1.75441,-0.0895 -3.81491,-0.24212 -4.57889,-0.33923 l -1.38906,-0.17658 v 6.4911 c 0,9.30114 0.46703,13.30481 2.13239,18.28022 2.7542,8.22839 9.31419,16.97527 16.80274,22.40426 1.85291,1.34332 4.96222,3.09515 6.20028,3.49337 0.43731,0.14066 2.64509,-0.76173 4.49792,-1.83843 z m -8.23354,-18.79449 c -0.8614,-0.57343 -8.06793,-8.37414 -8.73676,-9.45711 -1.52953,-2.47658 0.58856,-5.80567 3.38097,-5.31402 0.84987,0.14962 1.47378,0.64479 3.71122,2.94537 3.66421,3.76764 3.49484,3.77838 7.48906,-0.47562 1.67376,-1.78263 4.14155,-4.37224 5.48396,-5.75469 l 2.44076,-2.51354 h 1.48583 c 1.37788,0 1.55163,0.0718 2.39154,0.9883 0.74084,0.80841 0.904,1.19369 0.89633,2.11667 -0.005,0.6206 -0.16328,1.40578 -0.35138,1.74487 -0.60395,1.08868 -13.74938,15.4223 -14.49974,15.81031 -0.99428,0.51417 -2.85185,0.4686 -3.69179,-0.0905 z m -20.34712,10.05591 c -0.003,-0.10914 -0.54945,-1.03187 -1.21408,-2.05052 -2.83355,-4.34289 -5.60128,-11.23807 -6.69085,-16.66875 -0.8347,-4.16041 -1.07961,-8.2922 -1.0821,-18.25625 -0.002,-8.29688 0.0458,-9.35482 0.46029,-10.16764 1.08437,-2.12659 2.4055,-2.35538 6.9449,-1.20264 3.37038,0.85587 9.07206,1.17967 11.71003,0.66503 3.84887,-0.75089 7.46427,-2.71235 10.8457,-5.88415 l 1.78594,-1.67523 V 69.899927 33.181158 l -0.65157,-0.651563 -0.65157,-0.651589 -47.790571,0.06829 -47.790573,0.06829 -0.505778,0.624628 c -0.494845,0.611108 -0.505775,1.999642 -0.505775,64.24795 v 63.623316 l 0.773399,0.77341 0.773395,0.7734 h 36.797437 c 20.238588,0 36.794886,-0.0893 36.791776,-0.19844 z M 46.63841,149.76377 c -0.886148,-0.38542 -1.670767,-1.57644 -1.670767,-2.53616 0,-1.02127 0.807681,-2.31455 1.714077,-2.74468 0.775401,-0.36793 3.112659,-0.4172 19.757159,-0.41633 18.400784,0 18.899614,0.0143 19.744214,0.5293 1.968357,1.2001 1.79719,4.12763 -0.299511,5.12257 -0.817687,0.38804 -2.841538,0.43149 -19.656967,0.4222 -15.37412,-0.008 -18.896999,-0.0763 -19.588205,-0.3769 z m -0.02702,-11.9149 c -0.577546,-0.25273 -1.00702,-0.70903 -1.278194,-1.35803 -0.728248,-1.74297 0.0021,-3.35497 1.834488,-4.04926 0.501735,-0.1901 6.786711,-0.28221 19.256936,-0.28221 20.401504,0 19.831259,-0.0447 20.883218,1.63772 0.727318,1.16324 0.532993,2.44242 -0.532995,3.50854 l -0.806778,0.80687 -19.243437,0.0585 c -16.252819,0.0494 -19.378615,0 -20.113238,-0.3221 z m -0.119063,-11.92451 c -0.81331,-0.4413 -1.525182,-1.63232 -1.52369,-2.54926 5.29e-4,-0.33464 0.241276,-1.00256 0.534958,-1.48426 1.03799,-1.70251 0.398095,-1.65539 21.410933,-1.5767 l 19.028978,0.0713 0.807733,0.77393 c 1.518172,1.45468 1.241693,3.8772 -0.548126,4.80274 -1.112195,0.57515 -38.646997,0.53949 -39.710786,-0.0377 z M 46.383982,113.9226 c -0.503746,-0.30716 -0.956003,-0.88157 -1.144998,-1.4542 -0.429689,-1.30199 0.03932,-2.67306 1.144998,-3.34728 0.800835,-0.48831 1.572315,-0.50773 20.209173,-0.50868 h 19.376557 l 0.823936,0.7362 c 0.633759,0.56626 0.856223,1.02261 0.963819,1.9772 0.129693,1.15065 0.0719,1.30906 -0.793303,2.17424 l -0.933188,0.93327 H 66.623789 c -18.667058,0 -19.43894,-0.0204 -20.239807,-0.50869 z M 57.24431,96.863958 c -0.882145,-0.882147 -0.899584,-0.943239 -0.899584,-3.151743 0,-5.563817 1.994215,-10.851779 5.3335,-14.142587 1.981613,-1.952837 3.471614,-2.878138 5.858804,-3.638339 3.388064,-1.078918 5.809411,-0.845661 11.031654,1.062699 1.813324,0.662649 2.210212,0.712814 4.630208,0.585179 2.177031,-0.114829 3.116535,-0.312764 5.292709,-1.11506 4.502999,-1.660181 7.465676,-1.574509 11.509379,0.332793 2.71994,1.282912 5.61424,4.1665 6.96952,6.943725 1.44387,2.958756 2.05187,5.652082 2.10966,9.345401 l 0.0489,3.127692 -0.86407,0.774912 -0.86407,0.774911 H 82.772426 58.143893 Z m 44.26161,-6.914965 c -0.41032,-2.528517 -2.649143,-5.566515 -4.977558,-6.754389 -1.770457,-0.903234 -3.37956,-0.807482 -5.932358,0.352981 -2.809896,1.277355 -5.022514,1.771862 -7.949059,1.776624 -2.790249,0.0045 -5.485559,-0.606425 -8.045969,-1.823799 -2.105795,-1.001236 -4.024365,-1.094581 -5.711478,-0.277866 -2.176833,1.053809 -4.504063,4.240372 -4.967602,6.801935 l -0.155607,0.859896 H 82.712 101.65771 Z M 79.244893,73.388538 c -2.367699,-0.554779 -4.983189,-2.103253 -7.047942,-4.172691 -6.020342,-6.033955 -5.966981,-15.006029 0.125418,-21.088165 3.18353,-3.178175 6.894512,-4.556601 11.481845,-4.264871 10.992664,0.699055 17.415416,12.189777 12.291956,21.991161 -1.875496,3.587882 -5.423982,6.374103 -9.455229,7.424129 -1.717302,0.447278 -5.704295,0.506835 -7.396048,0.110437 z m 7.153859,-7.711573 c 4.529497,-2.313225 5.638914,-8.302651 2.252342,-12.15972 -2.020895,-2.30169 -5.451395,-3.198628 -8.438697,-2.206414 -3.920556,1.3022 -6.185051,5.822765 -4.931246,9.844141 0.602007,1.930849 2.789542,4.274529 4.612815,4.942125 1.787967,0.654659 4.77848,0.461513 6.504786,-0.420132 z"
       id="path2" />
  </g>
</svg>
