<?xml version="1.0" encoding="UTF-8" standalone="no"?>
<!-- Created with Inkscape (http://www.inkscape.org/) -->

<svg
   width="170.52394mm"
   height="170.39166mm"
   viewBox="0 0 170.52394 170.39166"
   version="1.1"
   id="svg1"
   xmlns="http://www.w3.org/2000/svg"
   xmlns:svg="http://www.w3.org/2000/svg">
  <defs
     id="defs1" />
  <g
     id="layer1"
     transform="translate(34.395828,-28.045833)">
    <path
       style="fill:#000000;stroke-width:0.264583"
       d="m 43.44355,196.51927 c -0.242967,-1.05503 -1.101592,-4.94146 -1.908069,-8.63652 -0.806476,-3.69506 -1.520957,-6.80672 -1.587738,-6.91479 -0.06678,-0.10807 -0.688446,-0.28014 -1.381469,-0.38237 -1.95662,-0.28866 -7.938479,-1.86887 -9.9618,-2.6316 -1.491774,-0.56234 -1.896137,-0.62667 -2.227554,-0.35438 -0.295778,0.24301 -10.149551,10.95983 -11.688201,12.71191 -0.100656,0.11462 -2.077577,-0.88677 -4.393155,-2.22532 -2.3155779,-1.33854 -5.1223466,-2.95153 -6.2372637,-3.58442 l -2.0271184,-1.15071 2.8208684,-8.47405 2.820871,-8.47403 -1.5875,-1.36384 c -2.0155667,-1.73159 -5.1650608,-4.8812 -7.02488847,-7.02514 l -1.44177803,-1.66204 -2.2489583,0.77608 c -9.8752445,3.40779 -14.0257525,4.79671 -14.3296825,4.79528 -0.19508,-8e-4 -0.543652,-0.32835 -0.774602,-0.72761 -0.230952,-0.39926 -1.819804,-3.08123 -3.530782,-5.95993 -1.710982,-2.8787 -3.050318,-5.39181 -2.976306,-5.58468 0.07401,-0.19287 3.043904,-3.0001 6.599758,-6.23829 l 6.465192,-5.88761 -0.858994,-2.28604 c -0.738039,-1.96415 -1.901991,-6.27131 -2.688905,-9.95017 l -0.224496,-1.04954 -8.723405,-1.99583 -8.723402,-1.99582 v -7.00686 -7.00687 l 8.660384,-2.00364 c 4.763209,-1.102 8.699645,-2.05537 8.747635,-2.1186 0.04799,-0.0632 0.417198,-1.60325 0.820468,-3.422257 0.403267,-1.819011 1.219666,-4.784154 1.814216,-6.589207 l 1.081003,-3.281918 -0.546574,-0.442588 c -0.300617,-0.243424 -3.298867,-2.981991 -6.662777,-6.085704 -5.761741,-5.316078 -6.095651,-5.675239 -5.761596,-6.19737 0.19503,-0.30484 1.822009,-3.024802 3.615505,-6.044359 2.308741,-3.887028 3.399301,-5.490104 3.734872,-5.490104 0.260683,0 4.082401,1.240272 8.492707,2.756159 l 8.0187398,2.75616 1.1736572,-1.367097 c 1.57909948,-1.839368 5.3412839,-5.584672 7.2930093,-7.260291 l 1.5875,-1.362919 -2.8182279,-8.466103 -2.8182278,-8.466101 3.3473945,-1.961923 c 1.8410661,-1.079055 4.6314179,-2.70652 6.2007799,-3.616589 l 2.853386,-1.65467 2.041406,2.211311 c 7.247501,7.850693 10.175883,10.952621 10.331061,10.943252 0.09737,-0.0059 1.724819,-0.514062 3.616589,-1.129303 1.891771,-0.615238 4.788086,-1.403302 6.436254,-1.751253 1.648169,-0.347948 3.043529,-0.679516 3.100838,-0.736817 0.05731,-0.0573 0.822298,-3.431615 1.700027,-7.498477 0.877702,-4.066863 1.726618,-7.959844 1.886479,-8.651068 l 0.290645,-1.256771 h 7.117371 c 3.914537,0 7.117424,0.0893 7.11753,0.198437 2.64e-4,0.31246 3.671014,17.054781 3.758221,17.141336 0.04294,0.04261 1.625864,0.433544 3.517635,0.868741 1.891771,0.4352 4.808802,1.245442 6.482292,1.800537 1.673489,0.555096 3.123379,1.012878 3.221937,1.017294 0.09858,0.0044 2.821066,-2.84947 6.049962,-6.34197 3.228896,-3.4925 5.969397,-6.456524 6.089994,-6.586718 0.124698,-0.134636 2.896923,1.323539 6.428475,3.381336 l 6.209215,3.618055 -2.755,8.255606 c -1.515242,4.540584 -2.755,8.381178 -2.755,8.534652 0,0.153474 1.136411,1.268383 2.525368,2.477571 1.38893,1.209188 3.603545,3.426336 4.921325,4.926994 l 2.39599,2.728466 8.42399,-2.873714 8.42399,-2.873711 1.57123,2.567189 c 0.86418,1.411954 2.19935,3.638753 2.96704,4.948441 0.76768,1.309687 1.72548,2.93352 2.12846,3.608514 l 0.73266,1.227265 -4.27887,3.944408 c -2.35339,2.169424 -5.35657,4.911055 -6.67374,6.092515 l -2.39488,2.148107 1.11247,3.395845 c 0.61185,1.867715 1.43108,4.821465 1.82052,6.563887 0.38941,1.742424 0.75567,3.245094 0.81388,3.339264 0.0582,0.0942 0.49525,0.24507 0.97121,0.33532 0.47598,0.0903 4.34798,0.96212 8.60446,1.93748 l 7.73906,1.77337 v 7.03403 7.03402 l -8.61409,1.96037 c -4.73776,1.0782 -8.6574,2.03039 -8.71029,2.11598 -0.0529,0.0856 -0.41577,1.58124 -0.80638,3.32367 -0.3906,1.74242 -1.21822,4.68715 -1.83914,6.54384 l -1.12892,3.37581 0.95826,0.83402 c 3.3319,2.89989 12.20306,11.16713 12.20306,11.37232 0,0.13611 -1.61472,2.97066 -3.58828,6.299 l -3.58828,6.05153 -2.1664,-0.74619 c -1.19153,-0.41041 -4.78579,-1.64177 -7.98725,-2.73637 -3.20145,-1.0946 -6.00749,-2.06288 -6.23567,-2.15172 -0.29332,-0.11423 -1.14138,0.65066 -2.89525,2.61133 -1.36422,1.52508 -3.623976,3.78561 -5.021664,5.02339 l -2.541244,2.25051 2.763944,8.25582 c 1.873805,5.59694 2.687346,8.3769 2.526083,8.63181 -0.13081,0.2068 -2.912772,1.91485 -6.182096,3.79568 -4.650607,2.67547 -6.009507,3.34782 -6.24414,3.08951 -1.816894,-2.00026 -10.669111,-11.61559 -11.19542,-12.16051 l -0.693288,-0.71783 -3.175,1.05883 c -3.158728,1.0534 -8.341836,2.36121 -9.357968,2.36121 -0.292973,0 -0.587375,0.0893 -0.654235,0.19844 -0.06686,0.10914 -0.988828,4.09774 -2.048828,8.86354 l -1.927225,8.66511 H 50.931841 43.885299 Z M 55.732917,164.8218 c 18.228098,-1.85075 34.359876,-13.19915 42.104468,-29.61972 6.674085,-14.15081 6.556245,-30.46109 -0.32213,-44.582289 C 94.879687,85.208996 92.182975,81.402896 87.888073,77.03204 75.661704,64.589501 58.528425,59.137748 41.585593,62.298762 31.333174,64.211554 22.32898,68.886366 14.855179,76.176711 5.8982577,84.913771 0.6903979,95.653494 -0.69275644,108.23987 c -0.59277776,5.39416 0.12446794,13.2432 1.73204984,18.95434 4.3169627,15.33655 15.6417876,27.97462 30.5197026,34.05882 4.533689,1.85401 9.170988,2.95156 15.536836,3.6772 1.803241,0.20556 6.072479,0.15196 8.637085,-0.10843 z M 45.640624,162.42208 C 25.115413,160.06365 7.9691515,145.19052 3.0673616,125.49288 1.7706572,120.28213 1.5876635,118.75067 1.5876635,113.10937 c 0,-5.50642 0.1909709,-7.18008 1.3508513,-11.83882 C 8.5501182,78.731149 29.590443,62.893067 52.652082,63.848713 c 9.447795,0.391504 18.075778,3.178979 25.796875,8.334274 18.626666,12.436829 26.501643,35.770843 19.259179,57.065973 -3.554359,10.45094 -11.115251,19.8746 -20.876551,26.0199 -2.563891,1.61412 -7.934801,4.10465 -10.818045,5.01642 -6.681734,2.11296 -13.947854,2.87507 -20.372916,2.1368 z m 2.38125,-11.48714 c 0,-3.62447 -0.04837,-3.98851 -0.838597,-6.31165 l -0.838597,-2.46532 -1.580727,-0.29397 -1.580726,-0.29397 -0.919824,1.04936 c -0.50591,0.57715 -1.054312,1.0524 -1.218697,1.05611 -0.164386,0.004 -1.280293,-0.38324 -2.479834,-0.8599 l -2.180961,-0.86664 -0.0026,-1.59709 -0.0026,-1.59708 -1.490874,-0.98182 -1.490874,-0.98182 -2.314628,1.2204 c -1.856343,0.97877 -2.846256,1.75388 -4.999911,3.91487 l -2.685309,2.69447 1.662165,1.34318 c 5.331831,4.30863 11.86733,7.24806 18.727764,8.42306 1.091406,0.18693 2.490391,0.35207 3.108854,0.36699 l 1.124479,0.0271 z m 11.509375,3.18444 c 4.082309,-0.83756 9.447847,-2.92967 12.694046,-4.94961 2.191862,-1.36387 5.959078,-4.25548 5.959078,-4.57401 0,-0.16355 -1.22039,-1.49585 -2.711979,-2.96067 -2.154581,-2.11593 -3.156955,-2.88634 -4.877064,-3.74845 l -2.165086,-1.08514 -1.406789,0.94467 c -1.402292,0.94164 -1.407213,0.94983 -1.539081,2.56116 l -0.132292,1.61651 -2.248958,0.98637 -2.248959,0.98638 -1.147339,-1.18107 -1.147365,-1.18106 -1.563132,0.30752 -1.563132,0.30753 -0.795232,2.48258 c -0.734615,2.29326 -0.795258,2.77781 -0.795258,6.35424 v 3.87167 l 1.785938,-0.15217 c 0.982265,-0.0837 2.738437,-0.34759 3.902604,-0.58645 z M 22.164627,137.88327 c 2.050012,-2.11262 2.764573,-3.07135 3.746812,-5.02712 l 1.213723,-2.41665 -0.984859,-1.48328 -0.984832,-1.48327 -1.415653,0.11739 c -1.412743,0.11716 -1.416685,0.11536 -1.926958,-0.88485 -0.281223,-0.55124 -0.755882,-1.62274 -1.054801,-2.3811 l -0.543491,-1.37885 1.071364,-1.09164 c 1.189337,-1.21185 1.182828,-1.18729 0.794853,-2.99634 l -0.276508,-1.28932 -2.170887,-0.7624 c -1.962034,-0.68906 -2.571793,-0.77215 -6.338073,-0.86362 l -4.1671874,-0.10121 v 0.78234 c 0,1.3931 0.7814469,5.41232 1.6059654,8.25998 0.813927,2.81107 3.024608,7.76219 4.548277,10.18646 1.102175,1.75365 3.915564,5.42396 4.157602,5.42396 0.10536,0 1.331452,-1.17471 2.724653,-2.61048 z m 61.609016,1.08814 c 4.196557,-5.21424 7.308057,-12.13428 8.44423,-18.78014 0.285221,-1.66839 0.518584,-3.3315 0.518584,-3.6958 v -0.66235 l -4.29948,0.11283 c -3.983302,0.10455 -4.454974,0.17121 -6.414134,0.90649 l -2.11463,0.79365 -0.290062,1.43581 -0.290037,1.43581 1.152605,1.20447 1.15263,1.20447 -0.996897,2.43749 -0.99687,2.43749 -1.504024,-0.16845 -1.504024,-0.16845 -0.948426,1.48263 -0.948425,1.48263 1.19417,2.37776 c 0.952289,1.89611 1.710188,2.91537 3.741659,5.03188 1.401127,1.45976 2.622206,2.65367 2.713487,2.65313 0.09131,-5.3e-4 0.71665,-0.68515 1.389644,-1.52135 z m -26.315272,-6.5974 c 8.280743,-3.00649 13.600668,-10.37643 13.619532,-18.86776 0.0077,-3.45949 -0.534432,-6.04186 -1.8542,-8.83259 -2.078302,-4.3947 -5.122492,-7.479198 -9.427871,-9.552679 -3.24657,-1.563556 -5.436076,-2.067558 -8.995833,-2.070733 -9.205119,-0.0082 -16.922115,5.944405 -19.487594,15.032042 -0.833544,2.9526 -0.838703,7.35363 -0.01217,10.26199 1.671267,5.88001 5.548312,10.56099 10.844927,13.09376 3.380687,1.61659 4.962154,1.92489 9.31619,1.81617 3.454585,-0.0863 4.051512,-0.17388 5.996914,-0.8802 z m -10.759414,-3.40977 c -10.02276,-2.63226 -15.052701,-13.86058 -10.386986,-23.1868 1.837796,-3.67352 5.945452,-7.030744 10.09404,-8.24995 6.65435,-1.955601 14.443762,0.937549 18.227463,6.77005 4.85013,7.47642 2.81342,17.46353 -4.56827,22.40071 -2.899013,1.93898 -5.450284,2.68792 -9.08042,2.66559 -1.559798,-0.01 -3.483928,-0.189 -4.285827,-0.3996 z m 7.503636,-8.05854 c 1.690741,-0.63258 3.618865,-2.52282 4.444074,-4.35674 0.865796,-1.92413 0.824071,-4.77398 -0.09943,-6.7912 -0.827379,-1.8072 -2.478643,-3.5162 -4.135887,-4.2805 -1.803612,-0.8318 -5.531591,-0.81156 -7.128987,0.0387 -1.749319,0.93111 -3.140604,2.33302 -3.948959,3.97906 -0.63029,1.28346 -0.735065,1.81938 -0.732525,3.74665 0.0026,1.83652 0.119988,2.48782 0.641085,3.55147 2.006838,4.09655 6.498749,5.78196 10.960629,4.11256 z m 38.515475,-10.73319 c 0.285829,-0.28393 -1.113499,-7.27011 -1.967203,-9.82137 -1.597793,-4.774936 -4.639707,-10.318171 -7.378674,-13.446078 l -0.917496,-1.047771 -2.674963,2.645833 c -2.626413,2.597796 -3.22244,3.413245 -4.464341,6.10778 l -0.620025,1.345282 0.95594,1.49439 0.955939,1.494393 1.523947,-0.159284 1.523974,-0.159285 0.99605,2.43538 0.996051,2.43538 -1.166072,1.0264 -1.166045,1.02641 0.26326,1.39845 c 0.144807,0.76915 0.396399,1.53311 0.559118,1.69768 0.36613,0.37036 4.197138,1.62001 5.455179,1.77945 1.041109,0.13194 6.94899,-0.0779 7.125361,-0.25304 z m -73.536674,-0.50685 c 1.091904,-0.36608 2.133444,-0.75965 2.314538,-0.87461 0.181094,-0.11495 0.467537,-0.89754 0.636542,-1.73908 l 0.307287,-1.53006 -1.153287,-0.99328 -1.153279,-0.99328 1.029534,-2.45512 1.029533,-2.455116 1.518108,0.137658 1.5181,0.137657 0.974434,-1.467591 0.974407,-1.467588 -1.145196,-2.275856 c -0.93091,-1.849927 -1.65563,-2.795778 -3.87241,-5.053978 l -2.727177,-2.778125 -0.942469,1.058334 c -1.579475,1.773655 -4.043035,5.640527 -5.383258,8.44972 -2.028496,4.251856 -3.3772708,8.898055 -3.8644984,13.312255 l -0.1825228,1.65365 h 4.0681672 c 3.643611,0 4.275357,-0.0695 6.053447,-0.66559 z m 15.762496,-21.09639 1.421315,-0.859895 0.0074,-1.622248 0.0074,-1.622248 2.281846,-0.980265 2.28182,-0.980266 1.135618,1.114521 c 1.100217,1.079775 1.174459,1.108694 2.382202,0.927584 0.685615,-0.102817 1.408245,-0.24897 1.605809,-0.324787 0.197565,-0.07581 0.718132,-1.258284 1.156785,-2.627712 0.735754,-2.296932 0.79756,-2.786898 0.79756,-6.32316 0,-4.474856 0.482389,-4.087702 -4.114006,-3.30191 -6.722242,1.149223 -13.416148,4.146883 -18.838598,8.436279 -0.763984,0.604345 -1.389062,1.247219 -1.389062,1.428609 0,0.181394 1.107995,1.433174 2.462186,2.781737 1.887299,1.879468 2.983785,2.725827 4.696354,3.625069 1.228804,0.645227 2.335345,1.176616 2.458984,1.180862 0.123667,0.0043 0.864421,-0.379227 1.646159,-0.85217 z m 35.888321,-0.226676 c 1.736381,-0.873033 2.676102,-1.602666 4.781682,-3.712663 1.515719,-1.518922 2.563654,-2.774423 2.485576,-2.977917 -0.219155,-0.571113 -4.174675,-3.431876 -6.761401,-4.890055 -4.482174,-2.526697 -9.257638,-4.184095 -14.188069,-4.924182 -1.455209,-0.218437 -2.804901,-0.397859 -2.999317,-0.398716 -0.284877,-0.0013 -0.332713,0.833114 -0.246459,4.297918 0.09282,3.727529 0.195103,4.554207 0.769038,6.214329 0.364093,1.053166 0.731043,1.983883 0.815419,2.068259 0.08438,0.08438 0.819494,0.308245 1.63359,0.497488 l 1.480185,0.34408 1.083019,-1.174933 c 0.603303,-0.654505 1.239679,-1.114814 1.436714,-1.039204 0.194548,0.07466 1.255633,0.511199 2.357967,0.970101 l 2.004219,0.834366 0.0082,1.628955 0.0082,1.628955 1.380781,0.851296 c 0.759433,0.468212 1.472724,0.855165 1.585092,0.859896 0.112369,0.0047 1.176787,-0.480359 2.365375,-1.077973 z"
       id="path1" />
  </g>
</svg>
