<?xml version="1.0" encoding="UTF-8" standalone="no"?>
<!-- Created with Inkscape (http://www.inkscape.org/) -->

<svg
   width="192.09807mm"
   height="129.78954mm"
   viewBox="0 0 192.09807 129.78954"
   version="1.1"
   id="svg1"
   xmlns="http://www.w3.org/2000/svg"
   xmlns:svg="http://www.w3.org/2000/svg">
  <defs
     id="defs1" />
  <g
     id="layer1"
     transform="translate(-67.204173,-45.508324)">
    <path
       style="fill:#000000;stroke-width:0.264583"
       d="m 73.790287,174.95551 c -2.731346,-0.8428 -4.984485,-3.01448 -6.031812,-5.81372 l -0.554302,-1.4815 0.06908,-57.59527 0.06908,-57.59524 0.906753,-1.672405 c 1.485239,-2.739337 3.914114,-4.520723 6.922056,-5.076772 0.957659,-0.177032 30.947418,-0.243893 89.014988,-0.19849 l 87.57078,0.0685 1.5875,0.638307 c 2.19182,0.8813 4.59694,3.292607 5.38332,5.397182 l 0.57451,1.537573 -0.0685,57.729095 -0.0685,57.72909 -0.74379,1.41222 c -0.99574,1.89058 -2.79142,3.63492 -4.62818,4.49587 l -1.5072,0.7065 -88.63541,0.0485 c -76.167514,0.0417 -88.807734,-0.005 -89.860379,-0.32946 z m 174.412173,-9.57479 c 1.07786,-0.54645 1.63317,-1.05183 2.23025,-2.02975 l 0.79504,-1.30215 0.0722,-51.08535 c 0.0806,-57.000434 0.2323,-52.400045 -1.78872,-54.225934 -0.56329,-0.508873 -1.47906,-1.05156 -2.03506,-1.205971 -0.7028,-0.195157 -26.47617,-0.281146 -84.5616,-0.282178 -74.939187,0 -83.652091,0.04088 -84.53437,0.409442 -1.247802,0.52123 -2.329657,1.545749 -3.058451,2.896368 l -0.571077,1.058333 v 50.93229 c 0,40.5529 0.06861,51.12549 0.336682,51.88035 0.430795,1.21309 1.751912,2.57008 3.102901,3.18714 1.01772,0.46485 4.271354,0.48361 84.817655,0.48919 l 83.75933,0.006 z M 89.038169,153.53514 c -0.582083,-0.2109 -1.078389,-0.38524 -1.1029,-0.38741 -0.0245,-0.003 -0.302323,-0.42106 -0.61736,-0.9308 -1.131879,-1.83142 -0.675984,-3.90321 1.160651,-5.27455 0.727485,-0.54319 0.869965,-0.54581 33.32115,-0.61293 30.62496,-0.0634 32.64608,-0.0395 33.51131,0.39687 2.62639,1.32437 2.82624,4.9856 0.36034,6.60149 -0.69096,0.45278 -2.40034,0.48032 -33.15169,0.53406 -27.752602,0.0485 -32.57562,0 -33.481501,-0.32673 z M 187.19858,136.1604 c -4.07458,-4.42754 -13.1052,-14.20347 -20.06805,-21.7243 -6.96285,-7.52086 -12.90557,-13.98681 -13.20605,-14.36881 l -0.54632,-0.694532 1.1675,-1.085374 c 0.64213,-0.596979 5.16826,-5.04817 10.05808,-9.891606 l 8.89057,-8.806207 21.27193,0.0026 21.27193,0.0026 10.13921,9.986486 10.13921,9.986513 -7.87076,8.46667 c -10.56218,11.36184 -28.56175,30.62957 -31.48149,33.6995 l -2.35742,2.47867 z m 4.27471,-34.52495 c -0.0528,-0.0528 -2.65759,-0.0639 -5.78841,-0.0246 l -5.69241,0.0714 1.04241,2.38125 c 0.57333,1.30969 3.1472,7.14306 5.71972,12.96303 l 4.67732,10.58177 0.0687,-12.93845 c 0.0378,-7.11612 0.0255,-12.98162 -0.0273,-13.0344 z m 9.878,18.56766 c 4.96463,-11.03513 7.9861,-17.70234 8.24347,-18.1901 0.22927,-0.4345 -0.12292,-0.46302 -5.71812,-0.46302 h -5.96243 v 12.88521 c 0,7.3406 0.0992,12.77704 0.23061,12.63385 0.12684,-0.13824 1.56975,-3.22792 3.20647,-6.86594 z m -24.41164,-9.60138 -4.02857,-9.04079 -4.43177,-0.006 c -2.43747,-0.003 -4.43177,0.0604 -4.43177,0.14099 0,0.0806 3.07514,3.44408 6.83363,7.47448 3.7585,4.0304 7.52517,8.0758 8.37038,8.98975 0.84521,0.91395 1.57722,1.62126 1.62671,1.57178 0.0495,-0.0495 -1.72289,-4.15832 -3.93861,-9.13074 z m 32.40279,8.71304 c 0.19015,-0.27032 3.50941,-3.87196 7.37614,-8.00364 3.86673,-4.13171 7.48223,-8.0182 8.03444,-8.63666 l 1.00401,-1.12448 h -4.46255 -4.46256 l -1.96004,4.29847 c -5.36563,11.76697 -6.32362,13.95566 -6.10843,13.95566 0.12829,0 0.38883,-0.22116 0.57899,-0.49146 z M 178.59963,94.953529 c 0,-0.217409 -3.8315,-6.845618 -4.13196,-7.147957 -0.14524,-0.146156 -4.16075,3.805634 -5.96776,5.873062 l -1.32973,1.521354 h 5.71473 c 3.3531,0 5.71472,-0.101838 5.71472,-0.246459 z m 21.96041,0.106574 c 0,-0.403834 -5.65617,-8.0645 -5.81918,-7.881435 -0.34956,0.392562 -5.68835,7.620291 -5.77839,7.822882 -0.0485,0.109141 2.5411,0.198438 5.75469,0.198438 3.21359,0 5.84288,-0.06294 5.84288,-0.139885 z m 21.69584,-0.0217 c 0,-0.188304 -6.59046,-7.077313 -6.87941,-7.191058 -0.10696,-0.04209 -0.91006,1.14853 -1.78467,2.645834 -0.87461,1.49733 -1.85459,3.168861 -2.17774,3.714565 l -0.58754,0.992187 h 5.71468 c 3.14307,0 5.71468,-0.07271 5.71468,-0.161555 z M 185.65521,88.78405 c 0.84885,-1.200415 1.58306,-2.271977 1.63157,-2.38125 0.0485,-0.109273 -1.29095,-0.198702 -2.97656,-0.198702 -1.68562,0 -3.06476,0.07332 -3.06476,0.162877 0,0.302445 2.51198,4.59613 2.68995,4.597876 0.097,0 0.87094,-0.980387 1.7198,-2.180801 z m 21.50403,-0.09128 c 0.73607,-1.250606 1.3383,-2.322169 1.3383,-2.38125 0,-0.05908 -1.36922,-0.107421 -3.04271,-0.107421 -1.67349,0 -3.0427,0.05927 -3.0427,0.131683 0,0.240427 3.13376,4.630817 3.30537,4.630817 0.0569,0 0.70568,-1.023223 1.44174,-2.273829 z M 89.263488,140.15465 c -0.458155,-0.13274 -1.215242,-0.67667 -1.682408,-1.20875 -0.789337,-0.899 -0.841513,-1.07643 -0.737868,-2.5093 0.08436,-1.16618 0.268666,-1.71228 0.75637,-2.2411 1.378453,-1.49461 -0.316971,-1.42476 34.569148,-1.42431 36.00093,0 33.34388,-0.14139 34.68722,1.85166 1.18309,1.75527 0.43022,4.34335 -1.55846,5.35742 -0.84976,0.43328 -2.94405,0.46111 -33.05411,0.43915 -18.50151,-0.0135 -32.500467,-0.12589 -32.979892,-0.26477 z m 0.657352,-13.45422 c -1.304306,-0.25424 -2.236448,-0.90355 -2.765327,-1.9263 -0.901573,-1.74344 -0.313671,-3.99462 1.300189,-4.97866 0.828019,-0.50488 1.581288,-0.51649 33.527218,-0.51747 31.14618,0 32.72248,0.0217 33.58164,0.48249 2.48218,1.3312 2.45966,5.21756 -0.0381,6.5813 -0.82434,0.45006 -2.60016,0.47781 -32.75389,0.5117 -17.53526,0.0196 -32.318525,-0.0492 -32.8517,-0.15306 z m -0.631206,-20.23099 c -1.405696,-0.61227 -2.23584,-1.86185 -2.23584,-3.36545 0,-3.02665 1.904754,-4.50281 7.353443,-5.698779 3.392659,-0.744697 4.777547,-1.294845 6.155603,-2.44528 l 0.90631,-0.756628 -2.675256,-2.610538 c -2.061478,-2.011601 -2.863964,-3.005111 -3.497789,-4.33033 -2.155407,-4.506595 -2.19464,-8.893519 -0.1177,-13.16146 1.526008,-3.135815 4.61496,-5.671476 7.805575,-6.40744 1.46564,-0.338085 4.25678,-0.33528 5.73607,0.0058 5.54721,1.278837 9.55458,6.563122 9.55458,12.599088 0,5.085001 -1.99854,8.883729 -6.61459,12.572682 l -1.19062,0.951495 0.66146,0.714878 c 1.00778,1.089183 2.84145,1.903492 6.25416,2.777437 4.31274,1.104397 5.90207,1.961647 7.14016,3.851225 0.62362,0.95176 0.55554,3.07588 -0.12942,4.03783 -1.19564,1.67912 -0.74076,1.63872 -18.33197,1.62732 -12.676542,-0.008 -16.133598,-0.0828 -16.774176,-0.36179 z"
       id="path1" />
  </g>
</svg>
