<?xml version="1.0" encoding="UTF-8" standalone="no"?>
<!-- Created with Inkscape (http://www.inkscape.org/) -->

<svg
   width="84.716507mm"
   height="188.11363mm"
   viewBox="0 0 84.716507 188.11363"
   version="1.1"
   id="svg1"
   xmlns="http://www.w3.org/2000/svg"
   xmlns:svg="http://www.w3.org/2000/svg">
  <defs
     id="defs1" />
  <g
     id="layer1"
     transform="translate(-127.52921,38.100021)">
    <path
       style="fill:#000000;stroke-width:0.264583"
       d="m 167.03309,149.62737 c -2.54124,-0.79653 -4.41515,-2.73918 -5.06727,-5.25312 -0.29284,-1.12892 -0.35645,-10.38188 -0.35645,-51.845022 V 42.058344 l -4.03489,-0.07303 -4.0349,-0.07305 -0.0716,-5.191654 -0.0716,-5.191681 -1.2513,-0.469953 c -6.62098,-2.48666 -14.08911,-8.128344 -18.23524,-13.775557 -6.25882,-8.5247958 -8.01539,-19.1804132 -4.81589,-29.213863 2.68449,-8.418433 9.83054,-16.488013 18.56375,-20.962911 4.85896,-2.489702 9.55585,-3.952187 15.53921,-4.838408 4.19402,-0.621216 11.86559,-0.433758 16.0073,0.391133 8.18303,1.629807 15.66685,5.194644 21.36669,10.17778 5.94873,5.200729 10.04985,12.515294 11.33707,20.2202782 0.74293,4.4468785 0.23199,10.5703157 -1.25523,15.043679 -3.23263,9.7233848 -11.45069,18.0325978 -22.38309,22.6313208 l -2.04708,0.861086 -0.003,5.225521 -0.003,5.225521 h -4.23458 -4.23457 l 0.0674,27.053645 0.0674,27.053645 12.10468,0.06882 12.10469,0.06882 v 9.257744 9.25777 h -6.84609 c -3.76534,0 -7.21815,0.0744 -7.67292,0.16537 l -0.82682,0.16536 v 1.9513 1.9513 h 7.67291 7.67292 v 2.51355 2.51354 h -7.67292 -7.67291 v 1.98437 1.98438 h 7.67291 7.67292 v 3.96875 3.96875 l -11.57552,0.004 c -6.36654,0.003 -11.83336,0.0728 -12.1485,0.15732 -0.55293,0.14833 -0.57605,0.30388 -0.66146,4.44987 -0.0875,4.25008 -0.097,4.31001 -0.88789,5.58824 -1.93064,3.12039 -6.12706,4.60298 -9.78416,3.45668 z m 10.1867,-137.633788 c 0,-0.08419 -0.53033,-3.2095812 -1.17853,-6.9453127 -1.72612,-9.9480157 -1.66772,-9.1885557 -0.74309,-9.6666842 0.42794,-0.2212975 1.44198,-1.1194785 2.25346,-1.9959637 4.7906,-5.1744034 3.22054,-13.4447494 -3.16272,-16.6597804 -3.82895,-1.928495 -8.86844,-1.059233 -11.99708,2.069412 -4.6704,4.670398 -4.01561,12.7125676 1.31638,16.1675761 1.17387,0.7606506 1.34146,0.9743016 1.22216,1.5581841 -0.24686,1.208061 -2.52725,15.0528868 -2.52725,15.3435578 0,0.193013 2.33958,0.282072 7.40834,0.282072 4.07458,0 7.40833,-0.06887 7.40833,-0.153061 z"
       id="path3" />
  </g>
</svg>
